<svg xmlns="http://www.w3.org/2000/svg" viewBox="0 0 576 448">
  <path d="M296,116c-2.7-1.3-5.3-2-8-2s-5.3.7-8,2l-184,152v164c0,4.7,1.5,8.5,4.5,11.5s6.8,4.5,11.5,4.5h112c4.7,0,8.5-1.7,11.5-5s4.5-7,4.5-11v-96c0-2.7.7-5.3,2-8s3.3-4.7,6-6,5.3-2,8-2h64c4.7,0,8.5,1.5,11.5,4.5s4.5,6.8,4.5,11.5v96c0,4,1.5,7.7,4.5,11s6.8,5,11.5,5h112c4.7,0,8.5-1.5,11.5-4.5s4.5-6.8,4.5-11.5v-164l-184-152ZM4,219c-2.7,2.7-4,6-4,10s1,5,3,7l25,31c2.7,3.3,5.7,5,9,5s6-1,8-3l235-194c2.7-1.3,5.3-2,8-2s5.3.7,8,2l235,194c2,2,4.3,3,7,3,4,0,7.3-1.7,10-5l25-31c2-2,3-4.3,3-7,0-4-1.3-7.3-4-10L319,11c-9.3-7.3-19.7-11-31-11s-21.3,3.7-30,11l-90,74V12c0-3.3-1.2-6.2-3.5-8.5s-5.2-3.5-8.5-3.5h-56c-3.3,0-6.2,1.2-8.5,3.5s-3.5,5.2-3.5,8.5v139L4,219Z"/>
</svg>