<svg xmlns="http://www.w3.org/2000/svg" viewBox="0 0 448 448">
  <path d="M64.5,320c-17.7,0-32.8,6.2-45.5,18.5-12.7,12.3-19,27.3-19,45s6.3,32.8,19,45.5c12.7,12.7,27.8,19,45.5,19s32.7-6.3,45-19c12.3-12.7,18.5-27.8,18.5-45.5s-6.2-32.7-18.5-45-27.3-18.5-45-18.5ZM17,144c-4.7,0-8.7,1.5-12,4.5s-5,6.8-5,11.5v48c0,4.7,1.5,8.5,4.5,11.5s6.5,4.5,10.5,4.5c56,4,103.8,25.8,143.5,65.5,39.7,39.7,61.5,87.5,65.5,143.5,0,4,1.5,7.5,4.5,10.5s6.8,4.5,11.5,4.5h48c4.7,0,8.5-1.7,11.5-5,3-3.3,4.5-7.3,4.5-12-4.7-77.3-34.3-143.3-89-198-54.7-54.7-120.7-84.3-198-89ZM17,0c-4.7,0-8.7,1.5-12,4.5S0,11.3,0,16v48c0,4.7,1.5,8.5,4.5,11.5s6.5,4.5,10.5,4.5c96,4,177.8,39.8,245.5,107.5,67.7,67.7,103.5,149.5,107.5,245.5,0,4,1.5,7.5,4.5,10.5s6.8,4.5,11.5,4.5h48c4.7,0,8.5-1.7,11.5-5,3-3.3,4.5-7.3,4.5-12-2-57.3-14.8-112.2-38.5-164.5s-54.5-97.7-92.5-136S233.8,61.3,181.5,38C129.2,14.7,74.3,2,17,0Z"/>
</svg>